# xmcd
#
# Track frame offsets:
#	150
#	5180
#	19443
#	33033
#	45332
#	62124
#	72474
#	88784
#	102537
#	114223
#	129269
#	140529
#	159017
#
# Disc length: 2399 seconds
# Revision: 0
# Processed by: cddbd v1.5.2PL0 Copyright (c) Steve Scherf et al.
# Submitted via: dBpowerAMP V12.0
#
DISCID=a7095d0d
DTITLE=Karrnnel Sawitsky and Daniel Koulack - Fiddle and Banjo
DYEAR=2015
DGENRE=Folk
TTITLE0=Goofing Off Theme
TTITLE1=Little Birdie
TTITLE2=Lullaby
TTITLE3=Groundhog
TTITLE4=The Woodchuck Set
TTITLE5=Waltz of Life
TTITLE6=Red Rocking Chair
TTITLE7=Rubin
TTITLE8=Traditional Tune
TTITLE9=Killin' Floor
TTITLE10=Sally In the Garden
TTITLE11=The Old French Set
TTITLE12=How Does a Poor Man Stand Such Times and  Live
EXTD=
EXTT0=
EXTT1=
EXTT2=
EXTT3=
EXTT4=
EXTT5=
EXTT6=
EXTT7=
EXTT8=
EXTT9=
EXTT10=
EXTT11=
EXTT12=
PLAYORDER=
